#!OML:ASF F:\VICON\USERDATA\INSTALL\rory3\rory3.ASF
:FULLY-SPECIFIED
:DEGREES
28
root 0.22621803765528092 18.110934626797157 1.3168823000313168 -1.3163465947981285 2.261950141034428 -1.5901753670109908
lfemur 9.434346138467125 -3.784860503232455 -20.151919488301452
ltibia 39.09429350951432
lfoot 0.9497705716351597 -11.962565604373136
ltoes -18.049700924158163
rfemur -19.250638957150677 4.298827098252481 25.04373906059643
rtibia 28.406739013842646
rfoot -7.461726895064655 -4.179797542881675
rtoes 3.522087103539193
lowerback 8.923422481416397 -1.4362678255833432 -0.14149062860361128
upperback 0.15844676975386537 -1.5928071051612729 2.1439990392825896
thorax -4.8863893831694565 -0.7643806237408607 2.58489703927323
lowerneck -16.387840658492713 -2.662407264266065 -1.7060950761799205
upperneck 21.602089052602434 -3.254015981580393 -0.05489863399899575
head 9.529705862766896 -1.6916560797179938 -0.13137884864549082
lclavicle -4.533851671001164e-16 -7.764982111579957e-16
lhumerus -25.851531652294035 1.5650834447653041 80.7189652801329
lradius 29.75167426445165
lwrist 8.683828515717497
lhand -27.092873599578407 24.326407203411904
lfingers 7.12502
lthumb -0.6108502694986049 53.99216520952863
rclavicle -4.533851669668133e-16 -7.764982110543503e-16
rhumerus -37.89733956958695 -31.848112689493924 -69.57244189364488
rradius 19.54389634199942
rwrist 12.546496709619763
rhand -18.086996890381652 21.419361283085244
rfingers 7.12502
rthumb 8.034414887842116 -8.77889337370084
29
root 0.14187428230232482 18.16532722847147 2.0471692414609635 -1.7095671733120958 2.197541067330446 -2.425928569757325
lfemur 4.004978626541012 -2.1837926137406387 -17.878428503373737
ltibia 48.365094455764016
lfoot 9.998228835513977 -17.35093173841615
ltoes -6.346114824233773
rfemur -16.941274786312132 4.513242073252355 26.823746399826618
rtibia 28.83661334686608
rfoot -9.087284161195482 -4.18125491434774
rtoes 5.144547901541424
lowerback 9.239549470436122 -1.3091230228167872 0.8169675333479917
upperback 0.11642103728181848 -1.3577396325571953 2.294367623252541
thorax -5.106041585475634 -0.6845953581638821 2.2389943793124742
lowerneck -16.1287852552491 -2.6851296662815343 -1.827921479087956
upperneck 21.70854805504486 -3.3143021966045314 0.05065728710688355
head 9.530314273668369 -1.7273988491719339 -0.08806037316670905
lclavicle -4.533851670875625e-16 -7.764982111494741e-16
lhumerus -27.090846038722592 1.6207194374605502 81.17822897041246
lradius 28.942753346378645
lwrist 7.562740592783475
lhand -27.197078425630092 24.118799534864138
lfingers 7.12502
lthumb -0.7860451320203113 53.698078639846464
rclavicle -4.53385166970006e-16 -7.764982110582415e-16
rhumerus -36.33915771494612 -29.668123215360538 -71.52436462590519
rradius 19.905044169131568
rwrist 11.477699855060695
rhand -17.9113796911992 21.17664701607302
rfingers 7.12502
rthumb 8.179968550037207 -9.050970787079168
30
root 0.08218929438413791 18.20042923768174 3.1768473242735595 -2.18627949327987 1.6417933954720532 -3.244665459269403
lfemur -2.245306407850565 -0.13134761794582817 -16.230549022401693
ltibia 56.89819742241434
lfoot 15.339351875409218 -18.61537042081812
ltoes -0.17956576148134218
rfemur -14.017544376735938 5.016847494387855 28.329603980470196
rtibia 29.166126223637786
rfoot -10.924396208940863 -4.215912329996996
rtoes 5.807841833391068
lowerback 9.682322754259214 -1.0321190050921547 1.7821373063000978
upperback 0.14072713063599995 -0.9158418540213134 2.3710714208324646
thorax -5.178844523826233 -0.4942515744623558 1.697715251507306
lowerneck -15.941977855190123 -2.764718344052162 -1.7533681873977887
upperneck 21.846329219886666 -3.4619652772129537 0.012495310680241567
head 9.572137550084172 -1.784820318990509 -0.14135121729504796
lclavicle -4.53385167084295e-16 -7.764982111482164e-16
lhumerus -28.099366079749565 1.5434983204794297 81.59177552692714
lradius 28.080811737526325
lwrist 6.370442089433321
lhand -26.961623529582024 24.420409340440635
lfingers 7.12502
lthumb -0.252990197587184 54.50344785476098
rclavicle -4.533851669618735e-16 -7.764982110530509e-16
rhumerus -33.82646108243336 -26.85644775612142 -74.06123984445516
rradius 20.394960212431407
rwrist 10.738972602141871
rhand -17.46584884655906 21.321006510901316
rfingers 7.12502
rthumb 8.473532353473594 -9.200057145411968
31
root 0.042346540371002106 18.222648894349742 4.285835854243009 -2.567575455229364 0.9427913285996916 -3.5906707456718214
lfemur -7.681395007430317 2.3609468989143445 -15.319247224710185
ltibia 62.767395392486335
lfoot 11.31844624749062 -16.977104943757748
ltoes -1.9240360441718696
rfemur -10.488489398179045 5.481678363592574 28.64529292170578
rtibia 28.7691594043848
rfoot -12.933858829233628 -4.296289199922086
rtoes 6.175751731526821
lowerback 9.751026183314167 -0.6884425221225559 2.2375665254655415
upperback 0.2558921430849466 -0.4577785686109135 2.323909006206452
thorax -5.048506741322459 -0.2819472918193632 1.2214137030474217
lowerneck -15.856667127017865 -2.8757240982752807 -1.833830787219101
upperneck 22.038818718857048 -3.58453043298812 0.012932810034530284
head 9.618636028797956 -1.8355007775423315 -0.1744632911411465
lclavicle -4.533851670720264e-16 -7.764982111400307e-16
lhumerus -29.391905550852176 1.7992728376447809 81.81421563856337
lradius 27.37191990669228
lwrist 5.396355702970016
lhand -27.109093059157168 23.26891412454239
lfingers 7.12502
lthumb -0.6464828415261346 53.01606319775377
rclavicle -4.5338516696704995e-16 -7.764982110582073e-16
rhumerus -31.28211294597955 -23.981575393993964 -76.43598577779005
rradius 20.95053838432102
rwrist 10.039203097695994
rhand -17.148481046912654 22.033485040190648
rfingers 7.12502
rthumb 8.847311397515893 -8.39833344498695
